<?xml version="1.0" encoding="UTF-8"?><svg id="Layer_2" xmlns="http://www.w3.org/2000/svg" viewBox="0 0 383.62 67.91"><defs><style>.cls-1{fill:#fff;}</style></defs><g id="Layer_1-2"><g><g><path class="cls-1" d="M89.72,18.14c-.57-.97-1.63-1.54-2.75-1.53-.84,.02-1.53,.01-2.19-.08-3.95-.57-5.72,1.75-6.83,3.83-2.11,3.96-4.42,7.91-6.66,11.73-.83,1.42-1.66,2.84-2.49,4.26-2.09,3.6-4.18,7.2-6.38,11l-1.37,2.29s0,0,0-.01c-1.25-2.14-2.49-4.26-3.73-6.37-5.45-9.29-10.59-18.06-15.57-27.08-.45-.81-.04-3.14,.83-4.71,.94-1.71,3.23-1.07,4.17-.72,1.19,.44,1.97,1.13,2.34,2.05,.45,1.13,.25,2.58-.55,4.21-.91,1.83-1.13,3.17-.68,4.24,.66,1.58,1.55,3.11,2.42,4.59,.6,1.02,1.71,1.6,2.87,1.53,1.18-.07,2.2-.79,2.67-1.87l.49-1.12c1.16-2.66,2.26-5.17,2.85-7.81,.88-3.91,.15-7.72-2.05-10.74C54.71,2.54,50.87,.5,46.29,.07c-4.36-.4-8.34,.83-11.19,3.47-2.69,2.49-4.15,6.05-4.1,10.03,.04,3.38,.93,6.84,2.42,9.51,6.24,11.12,12.76,22.32,19.07,33.15,1.96,3.36,3.91,6.72,5.85,10.06,.55,.97,1.55,1.56,2.67,1.56h.02c1.12,0,2.16-.6,2.71-1.56l26-45.02c.56-.97,.56-2.18-.02-3.14Z"/><path class="cls-1" d="M42.34,44.98c-.72-1.35-1.5-2.65-2.36-4.08-.57-.94-1.56-1.5-2.66-1.5h0c-1.1,0-2.09,.56-2.66,1.49l-5.36,8.78h-.05c-2.81-4.74-5.64-9.59-8.37-14.27-3.06-5.26-6.23-10.69-9.39-16.02-.68-1.14-1.99-2.54-3.47-2.72-1.57-.19-3.11-.18-4.95-.14-1.11,.02-2.11,.62-2.65,1.59-.55,.97-.54,2.12,.02,3.09l26.13,45.17c.56,.97,1.56,1.55,2.68,1.55h.01c1.12,0,2.12-.57,2.69-1.54l.99-1.69c3.29-5.6,6.41-10.9,9.49-16.26,.59-1.03,.4-2.54-.08-3.44Z"/></g><g><path class="cls-1" d="M175.24,24.43l-14.45,38.54c-.47,1.26-1.68,2.09-3.01,2.09-.04,0-.08,0-.12,0-1.38-.05-2.58-.98-2.96-2.31l-8.07-27.97-8.16,27.97c-.39,1.33-1.58,2.26-2.96,2.31-1.38,.05-2.64-.79-3.13-2.08l-14.45-38.54c-.62-1.66,.22-3.51,1.88-4.13,1.66-.62,3.51,.21,4.14,1.88l11.06,29.42,8.54-29.28c.41-1.28,1.66-2.22,3.09-2.22s2.68,.95,3.08,2.31l8.54,29.27,11.06-29.41c.62-1.66,2.48-2.49,4.13-1.88,1.67,.54,2.51,2.39,1.8,4.05Z"/><path class="cls-1" d="M230.76,42.57c0,12.39-10.09,22.48-22.48,22.48s-22.48-10.09-22.48-22.48,10.09-22.48,22.48-22.48,22.48,10.09,22.48,22.48Zm-6.42,0c0-8.76-7.2-15.97-16.06-15.97s-16.06,7.11-16.06,15.97,7.2,16.06,16.06,16.06,16.06-7.29,16.06-16.06Z"/><path class="cls-1" d="M279.32,24.54l-16.06,38.54c-.49,1.19-1.67,1.97-2.96,1.97s-2.46-.78-2.96-1.97l-16.06-38.54c-.68-1.64,.09-3.52,1.73-4.2,1.64-.69,3.52,.09,4.2,1.73l13.09,31.42,13.1-31.42c.68-1.64,2.56-2.42,4.2-1.73,1.63,.68,2.41,2.56,1.72,4.2Z"/><path class="cls-1" d="M334.81,42.57c0,12.39-10.09,22.48-22.48,22.48s-22.48-10.09-22.48-22.48,10.09-22.48,22.48-22.48,22.48,10.09,22.48,22.48Zm-6.42,0c0-8.76-7.2-15.97-16.06-15.97s-16.06,7.11-16.06,15.97,7.2,16.06,16.06,16.06,16.06-7.29,16.06-16.06Z"/><path class="cls-1" d="M383.62,23.31V61.84c0,1.35-.85,2.56-2.12,3.02-.36,.13-.72,.19-1.1,.19-.93,0-1.85-.41-2.47-1.16l-26.44-31.72v29.67c0,1.77-1.44,3.21-3.21,3.21s-3.21-1.44-3.21-3.21V23.31c0-1.35,.85-2.56,2.12-3.02,1.27-.45,2.69-.08,3.56,.96l26.44,31.72V23.31c0-1.77,1.44-3.21,3.21-3.21s3.21,1.44,3.21,3.21Z"/></g></g></g></svg>